<svg xmlns="http://www.w3.org/2000/svg" xmlns:xlink="http://www.w3.org/1999/xlink" version="1.1" x="0px" y="0px" viewBox="0 0 512 640" style="enable-background:new 0 0 512 512;" xml:space="preserve"><g><g><g><path d="M256,440L256,440c-8.1,0-15.96-1.59-23.36-4.72c-7.14-3.021-13.56-7.341-19.07-12.851s-9.83-11.93-12.85-19.08     C197.59,395.96,196,388.1,196,380c0-2.63,1.07-5.21,2.93-7.07c1.86-1.86,4.44-2.93,7.07-2.93h100c2.63,0,5.21,1.069,7.069,2.93     c1.86,1.86,2.931,4.44,2.931,7.07c0,8.1-1.59,15.96-4.72,23.35c-3.021,7.15-7.341,13.57-12.851,19.08s-11.93,9.83-19.08,12.851     C271.96,438.41,264.1,440,256,440z M217.26,390c1.76,6.88,5.38,13.2,10.45,18.28C235.28,415.83,245.33,420,256,420     c10.67,0,20.72-4.17,28.28-11.72c5.079-5.08,8.699-11.4,10.46-18.28H217.26z"/></g><g><path d="M125.99,390c-5.51,0-10-4.49-10-10s4.49-10,10-10h285.76c-2.86-4.2-5.521-8.87-7.9-13.891     c-6.64-14.13-10.17-29.109-10.189-43.319c0-5.141,0.489-10.11,1.439-14.79c0.101-0.47,0.34-2.09,0.54-4.23     c0.2-2.09,0.41-4.77,0.601-7.739c0.34-5.391,0.689-12.461,1-20.431c0.569-14.91,0.869-29.08,0.869-32.5     c-0.01-10.86-1.239-21.69-3.659-32.17c0-0.01,0-0.01,0-0.02c-0.181-0.73-0.261-1.49-0.261-2.24c0-2.23,0.761-4.42,2.141-6.18     c1.399-1.78,3.39-3.05,5.6-3.56c2.93-0.68,6.08,0.03,8.44,1.88c1.779,1.4,3.05,3.39,3.56,5.61c2.771,11.95,4.17,24.3,4.17,36.68     c-0.01,7.82-0.97,46.01-2.55,62.59c-0.25,2.54-0.48,4.471-0.85,6.311c-0.69,3.359-1.04,6.99-1.04,10.79     c-0.021,10.96,3,23.64,8.279,34.79c4.87,10.439,12.021,19.7,18.66,24.17c1.771,1.21,3.08,2.93,3.79,4.96     c0.71,2.04,0.75,4.189,0.11,6.25c-0.641,2.05-1.891,3.81-3.62,5.09c-1.73,1.27-3.78,1.95-5.93,1.95H125.99z M77.06,390     c-3.17,0-6.18-1.521-8.05-4.061c-3.28-4.439-2.33-10.71,2.11-13.989c16.51-12.04,27.54-34.95,27.46-57     c0-4.44-0.43-8.79-1.28-12.95c-0.37-1.83-0.6-3.771-0.85-6.311c-0.21-2.239-0.43-4.989-0.65-8.38     c-0.36-5.67-0.71-12.71-1.02-20.939c-0.57-14.75-0.88-29.03-0.88-33.271c0-18.32,3.04-36.3,9.02-53.44     c5.78-16.57,14.2-32.03,25.01-45.94c10.71-13.77,23.48-25.68,37.96-35.38c14.71-9.85,30.82-17.17,47.86-21.76     C227.49,72.88,241.7,71,256,71c14.3,0,28.52,1.88,42.25,5.58c11.06,2.97,21.84,7.15,32.03,12.42     c10.029,5.18,19.55,11.43,28.31,18.6c4.26,3.49,4.9,9.8,1.4,14.07c-1.9,2.33-4.721,3.67-7.74,3.67c-2.3,0-4.54-0.81-6.32-2.26     c-15.66-12.81-33.45-21.96-52.88-27.19C281.01,92.65,268.54,91,256,91s-25.01,1.65-37.05,4.89     c-61.87,16.67-105.07,73.09-105.06,137.21c-0.01,7.04,1.04,46.08,2.47,60.67c0.2,2.13,0.43,3.75,0.54,4.23     c1.11,5.47,1.68,11.17,1.68,16.95c-0.04,13.93-3.25,27.97-9.27,40.619c-6.22,13.061-15.32,24.29-26.31,32.471l-0.01,0.01     C81.26,389.33,79.21,390,77.06,390z M385.14,162.7c-3.47,0-6.64-1.76-8.479-4.7h-0.011c-2.92-4.68-1.489-10.86,3.19-13.78     c1.59-1,3.42-1.52,5.28-1.52c3.479,0,6.66,1.76,8.5,4.71c2.92,4.67,1.489,10.85-3.19,13.77     C388.84,162.18,387.01,162.7,385.14,162.7z"/></g></g></g><text x="0" y="527" fill="#000000" font-size="5px" font-weight="bold" font-family="'Helvetica Neue', Helvetica, Arial-Unicode, Arial, Sans-serif">Created by Flatart</text><text x="0" y="532" fill="#000000" font-size="5px" font-weight="bold" font-family="'Helvetica Neue', Helvetica, Arial-Unicode, Arial, Sans-serif">from the Noun Project</text></svg>