<svg xmlns="http://www.w3.org/2000/svg" xmlns:xlink="http://www.w3.org/1999/xlink" version="1.1" x="0px" y="0px" viewBox="0 0 512 640" enable-background="new 0 0 512 512" xml:space="preserve"><g><g><g><path d="M256,326c-30.878,0-56-25.121-56-56c0-30.878,25.122-56,56-56c30.879,0,56,25.122,56,56C312,300.879,286.879,326,256,326     z M256,226c-24.262,0-44,19.738-44,44s19.738,44,44,44s44-19.738,44-44S280.262,226,256,226z"/></g><g><path d="M340,434.503H173c-15.86,0-28.787-12.798-28.998-28.609l-19.305-155.843H82.089c-10.304,0-19.41-5.396-24.359-14.433     c-4.95-9.037-4.592-19.616,0.957-28.298c0.421-0.659,0.967-1.229,1.607-1.679L231.855,85.13     c7.108-4.993,15.457-7.633,24.145-7.633c8.687,0,17.036,2.64,24.145,7.633l171.563,120.511c0.64,0.449,1.186,1.02,1.606,1.678     c5.549,8.682,5.907,19.26,0.958,28.298c-4.95,9.038-14.057,14.434-24.36,14.434h-41.608l-19.306,155.843     C368.787,421.705,355.86,434.503,340,434.503z M68.238,214.725c-2.605,4.741-2.618,10.319,0.016,15.129     c2.811,5.132,7.983,8.197,13.835,8.197H130c3.028,0,5.582,2.257,5.955,5.262l20,161.453c0.03,0.244,0.045,0.491,0.045,0.737     c0,9.374,7.626,17,17,17h167c9.374,0,17-7.626,17-17c0-0.246,0.016-0.493,0.046-0.737l20-161.453     c0.372-3.005,2.926-5.262,5.954-5.262h46.911c5.852,0,11.024-3.064,13.835-8.198c2.634-4.81,2.621-10.388,0.016-15.128     L273.246,94.95c-5.077-3.567-11.041-5.452-17.246-5.452c-6.206,0-12.169,1.885-17.247,5.452L68.238,214.725z"/></g></g></g><text x="0" y="527" fill="#000000" font-size="5px" font-weight="bold" font-family="'Helvetica Neue', Helvetica, Arial-Unicode, Arial, Sans-serif">Created by Flatart</text><text x="0" y="532" fill="#000000" font-size="5px" font-weight="bold" font-family="'Helvetica Neue', Helvetica, Arial-Unicode, Arial, Sans-serif">from the Noun Project</text></svg>