<svg xmlns="http://www.w3.org/2000/svg" xmlns:xlink="http://www.w3.org/1999/xlink" version="1.1" x="0px" y="0px" viewBox="0 0 100 125" enable-background="new 0 0 100 100" xml:space="preserve"><path d="M20.1,68.11C15.487,71.999,6.21,79.301,2,82.593c7.419,6.665,16.919,11.156,27.59,12.33  c27.128,2.986,51.54-16.584,54.525-43.711c0.464-4.216,0.491-8.857-0.065-13.473l11.191-8.973L81.63,27.269l0.002,0.016  c-2.658-7.363-7.371-13.646-14.914-16.605c-11.582-4.54-26.009,3.965-27.43,16.876c-0.738,6.718,1.836,13.036,6.416,17.325  L16.341,20.443C16.341,20.443-2.492,46.867,20.1,68.11z M57.091,27.966c0.289-2.625,2.65-4.517,5.273-4.229  c2.621,0.289,4.515,2.649,4.227,5.273c-0.289,2.623-2.65,4.516-5.273,4.227S56.802,30.589,57.091,27.966z"/><text x="0" y="115" fill="#000000" font-size="5px" font-weight="bold" font-family="'Helvetica Neue', Helvetica, Arial-Unicode, Arial, Sans-serif">Created by Andrey Vasiliev</text><text x="0" y="120" fill="#000000" font-size="5px" font-weight="bold" font-family="'Helvetica Neue', Helvetica, Arial-Unicode, Arial, Sans-serif">from the Noun Project</text></svg>