<svg xmlns="http://www.w3.org/2000/svg" xmlns:xlink="http://www.w3.org/1999/xlink" version="1.1" x="0px" y="0px" viewBox="0 0 100 125" enable-background="new 0 0 100 100" xml:space="preserve"><path d="M67.443,38.184c0-1.356-1.104-2.46-2.459-2.46H35.017c-1.356,0-2.46,1.104-2.46,2.46c0,1.355,1.103,2.46,2.46,2.46h29.967  C66.34,40.644,67.443,39.54,67.443,38.184z"/><path d="M35.017,26.464h29.967c1.355,0,2.459-1.104,2.459-2.46s-1.104-2.46-2.459-2.46H35.017c-1.356,0-2.46,1.104-2.46,2.46  C32.557,25.359,33.66,26.464,35.017,26.464z"/><path d="M92.085,41.358c-1.827-1.025-4.241-0.825-6.474,0.54l-0.064,0.039V16.913C85.547,10.344,80.203,5,73.634,5H26.367  c-6.569,0-11.913,5.344-11.913,11.913v25.024l-0.064-0.039c-2.233-1.364-4.647-1.564-6.474-0.54C6.063,42.397,5,44.514,5,47.164  v35.922C5,89.654,10.344,95,16.913,95h66.174C89.656,95,95,89.654,95,83.086V47.164C95,44.514,93.938,42.397,92.085,41.358z   M19.373,16.913c0-3.857,3.137-6.995,6.994-6.995h47.267c3.855,0,6.992,3.138,6.992,6.995v28.031L55.977,60.007  c-1.527,0.937-3.705,1.472-5.977,1.472c-2.27,0-4.449-0.535-5.977-1.472l-24.65-15.063V16.913z M90.079,83.086  c0.001,3.857-3.136,6.994-6.992,6.994H16.913c-3.856,0-6.993-3.137-6.993-6.994V47.164c0-0.975,0.27-1.44,0.404-1.516  c0.009-0.005,0.061-0.03,0.187-0.03c0.16,0,0.606,0.046,1.313,0.478l29.633,18.11c2.329,1.423,5.363,2.207,8.542,2.207  c3.181,0,6.214-0.784,8.543-2.207l29.633-18.11c0.705-0.432,1.154-0.478,1.315-0.478c0.126,0,0.179,0.025,0.188,0.03  c0.131,0.074,0.401,0.541,0.401,1.516V83.086z"/><text x="0" y="115" fill="#000000" font-size="5px" font-weight="bold" font-family="'Helvetica Neue', Helvetica, Arial-Unicode, Arial, Sans-serif">Created by David</text><text x="0" y="120" fill="#000000" font-size="5px" font-weight="bold" font-family="'Helvetica Neue', Helvetica, Arial-Unicode, Arial, Sans-serif">from the Noun Project</text></svg>